# xmcd
#
# Track frame offsets:
#	150
#	19307
#	32912
#	47012
#	63332
#	79477
#	93012
#	106150
#	123325
#	140025
#	156075
#	172447
#
# Disc length: 2509 seconds
#
# Revision: 1
# Processed by: cddbd v1.5.1PL0 Copyright (c) Steve Scherf et al.
# Submitted via: audiograbber 1.82.02
#
DISCID=a409cb0c
DTITLE=Stan Coster - Remember The Time
DYEAR=1900
DGENRE=Country
TTITLE0=Lawson's Loaded Dog
TTITLE1=Darky Grant The Mailman
TTITLE2=The Time Machine
TTITLE3=You're A Better Man
TTITLE4=If This Old Pub Could Talk
TTITLE5=The Barkly Brute
TTITLE6=Catchin' Yellowbelly
TTITLE7=The Last Of The Lady
TTITLE8=Angus
TTITLE9=Freedom On The Road
TTITLE10=Jim Laffin A Kidman Drover
TTITLE11=Remember The Time
EXTD=
EXTT0=
EXTT1=
EXTT2=
EXTT3=
EXTT4=
EXTT5=
EXTT6=
EXTT7=
EXTT8=
EXTT9=
EXTT10=
EXTT11=
PLAYORDER=
